#!OML:ASF E:\acrobat2\Project_11_07_03\Capture day 1\Session 1\Acrobat.ASF
:FULLY-SPECIFIED
:DEGREES
1205
root 11.1529 4.15172 10.6304 -82.5439 2.91446 168.791
lowerback -14.197612047332159 -6.379361438157254 -2.3809571142213084
upperback -6.763142625904904 -7.465709732449059 8.024243373349485
thorax 1.7431282531244214 -5.999046081939995 8.330344490542712
lowerneck -2.1536670723838607 -19.051871157061203 13.899822446599684
upperneck -32.53149859019621 -22.431754764616606 -1.5255882615603507
head -11.648370407896193 -9.602318645785633 -0.936083082895048
rclavicle 2.38542e-15 -1.58034e-14
rhumerus 5.880545243113856 -47.92043089194751 46.3106955388251
rradius 48.40398178228526
rwrist -26.908352533229504
rhand -25.315730136282784 -38.907528062243514
rfingers 7.92229599569991
rthumb 2.0959734725940877 -69.3344467602182
lclavicle 2.38542e-15 -1.58034e-14
lhumerus -17.78891372649911 9.461610570158081 -19.30740450032986
lradius 70.74825017505354
lwrist 28.432411662667683
lhand -15.21911777202833 -31.69593974218191
lfingers 7.205494562021468
lthumb 10.075774194888572 -2.578666354434828
rfemur 3.6958865972078017 4.596442439339698 -0.9742011028100775
rtibia 56.19693887467709
rfoot 27.7702759238088 -24.822865687613817
rtoes 26.156940405263093
lfemur -8.969711989266637 -6.197692060113992 -2.3525292214490294
ltibia 5.585606341722339
lfoot 30.934926901197265 7.48675159704931
ltoes 4.47688
1206
root 11.1529 4.15172 10.6304 -82.5439 2.91446 168.791
lowerback -14.101155392040367 -6.334574116098441 -2.306771883996635
upperback -6.798123190630426 -7.450697568429949 8.093021177657024
thorax 1.8278729995894516 -6.031477481996075 8.422912329189517
lowerneck -2.1878201874606535 -19.118207780607875 13.81957162728207
upperneck -32.540459191695895 -22.500925892385112 -1.6255413744860836
head -11.569572489085784 -9.675975390877703 -0.9249011641585922
rclavicle 2.38542e-15 -1.58034e-14
rhumerus 4.121511919257169 -44.30996811390062 50.359178467657344
rradius 50.06945054554325
rwrist -26.856423258297035
rhand -25.37103467319027 -38.927964109682115
rfingers 7.891981836743728
rthumb 2.0141213164561904 -69.38964896216841
lclavicle 2.38542e-15 -1.58034e-14
lhumerus -16.317378042737282 5.412648145721165 -21.517490466822633
lradius 65.54313842379578
lwrist 28.368878391461454
lhand -15.18151188066742 -31.731490706267085
lfingers 7.180759335213141
lthumb 10.085404925294988 -2.598114669045816
rfemur 4.1013096662728685 4.514202463936307 -1.4034458393913836
rtibia 56.53314594548083
rfoot 27.7163830677497 -25.01549085709618
rtoes 26.00818421939743
lfemur -8.546021508806374 -6.66884797712418 -2.7228098680940986
ltibia 1.7132408184376997
lfoot 30.757690062831063 7.658434788470408
ltoes 4.47688
1207
root 11.1529 4.15172 10.6304 -82.5439 2.91446 168.791
lowerback -14.152437904413425 -6.31620347181603 -2.236369145032699
upperback -6.870035668563486 -7.430570097675132 8.167430977003232
thorax 1.9167953889618612 -6.097997467220396 8.373168219103004
lowerneck -2.1009657437170848 -19.0323260964211 13.891288533358733
upperneck -32.45490058888625 -22.458415408318288 -1.7137370668988767
head -11.54546281524844 -9.715938244537323 -0.9574679917363169
rclavicle 2.38542e-15 -1.58034e-14
rhumerus 6.168521175112567 -45.87333219394235 52.814973323793666
rradius 51.51080488802833
rwrist -26.94783704381074
rhand -25.305619452612884 -38.84213779576436
rfingers 7.955602262514982
rthumb 1.933972409654874 -69.37266903492322
lclavicle 2.38542e-15 -1.58034e-14
lhumerus -18.661534580032058 0.8330892720534964 -25.996936739197892
lradius 68.5256553286491
lwrist 28.39041286785671
lhand -15.181650412215193 -31.650728102080134
lfingers 7.252061730068818
lthumb 10.13302893809488 -2.6886247932454976
rfemur 3.9501332380791823 4.966841684910375 -1.5306059302427713
rtibia 53.79697791263722
rfoot 27.539167942279807 -24.587421936660014
rtoes 25.542431987259533
lfemur -8.416230757165833 -7.035387365062011 -2.6541053360886355
ltibia 3.2611533441827403
lfoot 30.971557705221734 8.081645506875804
ltoes 4.47688
1208
root 11.1529 4.15172 10.6304 -82.5439 2.91446 168.791
lowerback -14.245494650164872 -6.377961164876614 -2.264616567887606
upperback -6.813363693315886 -7.3729535260080565 8.09895079372992
thorax 1.8556331272903077 -6.035785356500877 8.314838816258952
lowerneck -2.069120911352072 -19.086461894300957 13.87553516927194
upperneck -32.381693359679616 -22.448680885545677 -1.736529635508473
head -11.577102484097766 -9.68569424726764 -1.030808215729304
rclavicle 2.38542e-15 -1.58034e-14
rhumerus 8.914105652352749 -46.34810496353187 50.68826557108989
rradius 50.92190639961484
rwrist -26.96749040017655
rhand -25.211740151368634 -38.922089269526175
rfingers 8.018404518724601
rthumb 1.9612421088108534 -69.27813094421991
lclavicle 2.38542e-15 -1.58034e-14
lhumerus -18.12391960783984 2.7119776848623456 -27.09800247362808
lradius 68.32065860770899
lwrist 28.351417485771137
lhand -15.185398486305003 -31.65348184304422
lfingers 7.346342764199427
lthumb 10.055936653126643 -2.604462074916289
rfemur 4.237267357747557 4.785021652983973 -1.164104449942466
rtibia 50.264344024863426
rfoot 27.962152498926617 -24.395781290032794
rtoes 25.76806358796904
lfemur -8.04558996641557 -6.926659288827457 -2.75031945850558
ltibia 4.420223623403657
lfoot 31.45020204061114 8.468290965461248
ltoes 4.47688
1209
root 11.1529 4.15172 10.6304 -82.5439 2.91446 168.791
lowerback -14.22478642788596 -6.35725398561212 -2.216370931167452
upperback -6.789435995544616 -7.324313722052131 8.1476751751658
thorax 1.8531125957884444 -6.060912413827134 8.35832463979333
lowerneck -2.1080832226734745 -19.179487312045726 13.852408287156015
upperneck -32.35821021174542 -22.456914178981002 -1.768023765727126
head -11.555050081944028 -9.76141303257727 -0.9754017318612941
rclavicle 2.38542e-15 -1.58034e-14
rhumerus 8.477317134002613 -50.25777246994211 50.3080255718108
rradius 49.87203952708619
rwrist -26.88357801641737
rhand -25.1912214238527 -38.83706098889446
rfingers 7.938656420154575
rthumb 2.057991141104117 -69.1785320655636
lclavicle 2.38542e-15 -1.58034e-14
lhumerus -16.615783717988325 3.047045143122496 -27.95859555371135
lradius 67.20770357802603
lwrist 28.37787752031188
lhand -15.246527319946301 -31.605484496817194
lfingers 7.403990211746879
lthumb 9.96565673793341 -2.617709955084515
rfemur 3.910110925856192 4.9416056296749105 -1.6240336249999268
rtibia 49.828513787070804
rfoot 27.89235492604512 -24.705954000394183
rtoes 26.099330459694812
lfemur -8.4906081881756 -6.4442378498688955 -2.439533913421964
ltibia 8.538777626377954
lfoot 31.31649567345661 8.7447014914113
ltoes 4.47688
1210
root 11.1529 4.15172 10.6304 -82.5439 2.91446 168.791
lowerback -14.248265375693022 -6.408869571438295 -2.3003078347615373
upperback -6.837843076978486 -7.306151975145059 8.16027166228569
thorax 1.7821919954455343 -6.05855460120387 8.345415588345276
lowerneck -2.14255446565018 -19.235839713483138 13.77280664349824
upperneck -32.38610486580291 -22.457292889687427 -1.8359163592318801
head -11.490283033714734 -9.785054908212656 -1.0530711538435833
rclavicle 2.38542e-15 -1.58034e-14
rhumerus 9.941803855167162 -45.48463792665746 49.592446913558874
rradius 52.22776310765699
rwrist -26.78641486680061
rhand -25.21219014771957 -38.87968578627379
rfingers 7.863695191210844
rthumb 2.000269953690212 -69.21348433204177
lclavicle 2.38542e-15 -1.58034e-14
lhumerus -16.36296714198371 7.718423047916518 -26.641267556688497
lradius 66.11701157437086
lwrist 28.36253517881067
lhand -15.148712141529696 -31.608543044178212
lfingers 7.444898777151806
lthumb 9.888908991190846 -2.588432769189132
rfemur 3.872169869904532 4.684611326131142 -1.4527435878052262
rtibia 53.93094881648494
rfoot 27.682256755325263 -24.82701315473225
rtoes 25.85865152184494
lfemur -8.445384439657609 -6.172271744153891 -2.1028646232982506
ltibia 10.612294002252582
lfoot 31.50481156071527 8.306377633775309
ltoes 4.47688
1211
root 11.1529 4.15172 10.6304 -82.5439 2.91446 168.791
lowerback -14.155167313416428 -6.324511259946961 -2.271141787302136
upperback -6.805171066462482 -7.294398693302497 8.167573728624843
thorax 1.7065703127627911 -6.149362578590766 8.26157322763439
lowerneck -2.0948315161300846 -19.25440994018226 13.833645004442564
upperneck -32.47369646311572 -22.534373507715074 -1.8974849538036087
head -11.561121504539324 -9.794562860830757 -1.1159988034664945
rclavicle 2.38542e-15 -1.58034e-14
rhumerus 12.863804556097303 -48.34370837953995 46.223009824874225
rradius 53.610380745302294
rwrist -26.81381694217589
rhand -25.16052504928736 -38.97490442500215
rfingers 7.772707758978897
rthumb 2.0956462211578666 -69.28526462001362
lclavicle 2.38542e-15 -1.58034e-14
lhumerus -14.59907215550593 10.953254449179976 -29.26497440347973
lradius 68.29226633995368
lwrist 28.291462207299887
lhand -15.118999566829864 -31.69822137926321
lfingers 7.543650792500274
lthumb 9.863780728380387 -2.6274308245749673
rfemur 3.5874372361101754 4.655955633407496 -1.871170946968489
rtibia 49.390787683234535
rfoot 27.27009376220985 -25.11278666957878
rtoes 25.987452242669768
lfemur -8.92699543824977 -5.781917170190297 -1.9629413904534392
ltibia 13.304609792458534
lfoot 31.77524345510403 7.920897789006545
ltoes 4.47688
